<svg version="1.1" xmlns="http://www.w3.org/2000/svg" viewBox="0 0 404.9281005859375 267.3337286101894" width="1214.7843017578125" height="802.0011858305681">
  <!-- svg-source:excalidraw -->
  
  <defs>
    <style class="style-fonts">
      @font-face {
        font-family: "Virgil";
        src: url("https://excalidraw.com/Virgil.woff2");
      }
      @font-face {
        font-family: "Cascadia";
        src: url("https://excalidraw.com/Cascadia.woff2");
      }
    </style>
    
  </defs>
  <rect x="0" y="0" width="404.9281005859375" height="267.3337286101894" fill="#2e3440"></rect><g stroke-linecap="round"><g stroke-opacity="0.4" fill-opacity="0.4" transform="translate(72.11245684176174 31.48794140142013) rotate(0 51.5720160369774 99.45326919027661)" fill-rule="evenodd"><path d="M0 0 C0 0, 0 0, 0 0 M0 0 C0 0, 0 0, 0 0 M-0.26 6.4 C1.65 4.2, 3.57 1.99, 5.64 -0.39 M-0.26 6.4 C1.78 4.04, 3.83 1.69, 5.64 -0.39 M0.13 12.04 C3.45 8.23, 6.76 4.42, 10.63 -0.03 M0.13 12.04 C2.73 9.05, 5.33 6.06, 10.63 -0.03 M-0.13 18.44 C5.68 11.76, 11.48 5.09, 16.27 -0.43 M-0.13 18.44 C4.17 13.49, 8.47 8.54, 16.27 -0.43 M-0.39 24.84 C3.97 19.82, 8.34 14.8, 21.26 -0.07 M-0.39 24.84 C7.76 15.47, 15.9 6.09, 21.26 -0.07 M0 30.48 C7.77 21.55, 15.53 12.62, 26.9 -0.46 M0 30.48 C7.84 21.47, 15.67 12.46, 26.9 -0.46 M-0.26 36.88 C10.1 24.96, 20.47 13.04, 31.89 -0.1 M-0.26 36.88 C8.22 27.13, 16.69 17.38, 31.89 -0.1 M0.14 42.52 C14.97 25.46, 29.8 8.39, 37.53 -0.5 M0.14 42.52 C9.36 31.91, 18.59 21.3, 37.53 -0.5 M-0.12 48.92 C8.47 39.03, 17.06 29.15, 42.52 -0.14 M-0.12 48.92 C13.96 32.72, 28.04 16.52, 42.52 -0.14 M-0.38 55.32 C15.74 36.76, 31.87 18.21, 48.16 -0.53 M-0.38 55.32 C13.27 39.6, 26.93 23.89, 48.16 -0.53 M0.01 60.96 C15.89 42.69, 31.77 24.43, 53.15 -0.17 M0.01 60.96 C20.5 37.39, 40.98 13.83, 53.15 -0.17 M-0.25 67.36 C13.65 51.37, 27.55 35.38, 58.79 -0.57 M-0.25 67.36 C22.58 41.09, 45.41 14.83, 58.79 -0.57 M-0.51 73.75 C19.4 50.85, 39.32 27.94, 63.78 -0.21 M-0.51 73.75 C20.58 49.49, 41.68 25.22, 63.78 -0.21 M-0.12 79.4 C16.04 60.81, 32.19 42.23, 69.42 -0.6 M-0.12 79.4 C20.27 55.94, 40.66 32.49, 69.42 -0.6 M-0.38 85.8 C19.51 62.92, 39.39 40.04, 74.41 -0.24 M-0.38 85.8 C17.99 64.66, 36.36 43.53, 74.41 -0.24 M0.01 91.44 C26.82 60.61, 53.62 29.77, 80.05 -0.64 M0.01 91.44 C29.67 57.32, 59.33 23.2, 80.05 -0.64 M-0.25 97.84 C19.46 75.17, 39.16 52.5, 83.73 1.23 M-0.25 97.84 C26.19 67.43, 52.62 37.02, 83.73 1.23 M-0.51 104.23 C30.14 68.97, 60.79 33.71, 89.37 0.84 M-0.51 104.23 C28.93 70.37, 58.37 36.5, 89.37 0.84 M-0.11 109.88 C20.62 86.03, 41.35 62.17, 94.36 1.2 M-0.11 109.88 C28.34 77.14, 56.8 44.4, 94.36 1.2 M-0.38 116.27 C32.78 78.14, 65.93 40, 98.69 2.31 M-0.38 116.27 C30.52 80.73, 61.42 45.19, 98.69 2.31 M-0.64 122.67 C25.43 92.69, 51.49 62.71, 99.74 7.2 M-0.64 122.67 C25.45 92.67, 51.53 62.66, 99.74 7.2 M-0.24 128.32 C38.45 83.8, 77.15 39.29, 100.13 12.85 M-0.24 128.32 C20.88 104.02, 42.01 79.72, 100.13 12.85 M-0.5 134.71 C33.1 96.06, 66.7 57.4, 101.19 17.73 M-0.5 134.71 C23.34 107.28, 47.19 79.85, 101.19 17.73 M-0.11 140.36 C25.41 111, 50.93 81.64, 102.24 22.62 M-0.11 140.36 C35.62 99.25, 71.35 58.15, 102.24 22.62 M-0.37 146.75 C24.83 117.77, 50.03 88.78, 103.29 27.51 M-0.37 146.75 C36.75 104.05, 73.87 61.34, 103.29 27.51 M-0.63 153.15 C27.31 121.01, 55.26 88.86, 103.68 33.15 M-0.63 153.15 C40.35 106.01, 81.33 58.87, 103.68 33.15 M-0.24 158.8 C35.72 117.43, 71.68 76.06, 104.08 38.8 M-0.24 158.8 C36.55 116.47, 73.35 74.15, 104.08 38.8 M-0.5 165.19 C27.88 132.54, 56.27 99.89, 105.13 43.68 M-0.5 165.19 C25.46 135.34, 51.41 105.48, 105.13 43.68 M-0.76 171.59 C22.31 145.05, 45.38 118.51, 104.87 50.08 M-0.76 171.59 C23.46 143.73, 47.68 115.87, 104.87 50.08 M-0.37 177.23 C27.66 144.99, 55.69 112.75, 105.26 55.73 M-0.37 177.23 C36.69 134.61, 73.74 91.99, 105.26 55.73 M-0.63 183.63 C39.85 137.07, 80.32 90.51, 105 62.12 M-0.63 183.63 C40.36 136.48, 81.35 89.33, 105 62.12 M-0.89 190.03 C36.62 146.88, 74.12 103.74, 104.08 69.28 M-0.89 190.03 C40.07 142.91, 81.03 95.8, 104.08 69.28 M-0.49 195.67 C40.61 148.39, 81.71 101.11, 103.82 75.67 M-0.49 195.67 C32.69 157.5, 65.87 119.33, 103.82 75.67 M1.21 199.81 C24.45 173.07, 47.69 146.34, 102.25 83.58 M1.21 199.81 C40.13 155.04, 79.04 110.28, 102.25 83.58 M6.2 200.17 C39.16 162.25, 72.12 124.34, 102.64 89.22 M6.2 200.17 C34.91 167.13, 63.63 134.1, 102.64 89.22 M11.19 200.53 C34.59 173.6, 58 146.68, 103.04 94.87 M11.19 200.53 C47.56 158.69, 83.92 116.85, 103.04 94.87 M16.83 200.13 C47.65 164.67, 78.48 129.21, 104.09 99.76 M16.83 200.13 C42.51 170.6, 68.18 141.06, 104.09 99.76 M21.82 200.49 C53.72 163.79, 85.62 127.09, 103.82 106.15 M21.82 200.49 C40.02 179.55, 58.22 158.61, 103.82 106.15 M26.8 200.85 C49.16 175.13, 71.53 149.41, 103.56 112.55 M26.8 200.85 C47.07 177.54, 67.34 154.22, 103.56 112.55 M32.45 200.46 C51.63 178.39, 70.82 156.32, 101.99 120.46 M32.45 200.46 C53.42 176.33, 74.39 152.21, 101.99 120.46 M38.75 199.31 C54.95 180.67, 71.15 162.03, 102.38 126.1 M38.75 199.31 C54.81 180.82, 70.88 162.34, 102.38 126.1 M44.39 198.91 C62.7 177.85, 81.01 156.79, 97.53 137.78 M44.39 198.91 C55.67 185.94, 66.94 172.97, 97.53 137.78 M48.72 200.03 C54.37 193.53, 60.02 187.03, 69.06 176.63 M48.72 200.03 C54.7 193.15, 60.68 186.26, 69.06 176.63 M69.06 176.63 C76.59 167.97, 84.12 159.31, 93.33 148.71 M69.06 176.63 C78.05 166.29, 87.04 155.94, 93.33 148.71" stroke="#bf616a" stroke-width="0.5" fill="none"></path><path d="M0 0 C-0.2 68.06, -0.41 136.11, -0.59 198.8 M0 0 C-0.18 59.31, -0.35 118.62, -0.59 198.8 M-0.59 198.8 C10.57 199.01, 21.73 199.21, 31.7 199.39 M-0.59 198.8 C11.69 199.03, 23.98 199.25, 31.7 199.39 M31.7 199.39 C35.64 198.88, 39.58 198.37, 46.42 197.47 M31.7 199.39 C36.49 198.77, 41.27 198.14, 46.42 197.47 M46.42 197.47 C49.83 195.38, 53.24 193.28, 58.52 190.04 M46.42 197.47 C50.67 194.86, 54.92 192.25, 58.52 190.04 M58.52 190.04 C60.99 186.78, 63.47 183.52, 68.74 176.58 M58.52 190.04 C62.4 184.93, 66.28 179.82, 68.74 176.58 M68.74 176.58 C71.64 173.74, 74.54 170.9, 78.67 166.86 M68.74 176.58 C71.46 173.91, 74.19 171.24, 78.67 166.86 M78.67 166.86 C83.63 159.49, 88.59 152.12, 91.9 147.2 M78.67 166.86 C83.75 159.3, 88.84 151.75, 91.9 147.2 M91.9 147.2 C94.04 141.84, 96.18 136.48, 100.77 125.01 M91.9 147.2 C95.28 138.75, 98.66 130.29, 100.77 125.01 M100.77 125.01 C101.45 120.43, 102.14 115.85, 102.67 112.31 M100.77 125.01 C101.15 122.45, 101.53 119.89, 102.67 112.31 M102.67 112.31 C102.79 107.87, 102.91 103.42, 103.04 98.81 M102.67 112.31 C102.78 108.41, 102.88 104.51, 103.04 98.81 M103.04 98.81 C102.6 93.03, 102.15 87.24, 101.87 83.6 M103.04 98.81 C102.65 93.76, 102.26 88.72, 101.87 83.6 M101.87 83.6 C102.39 77.58, 102.91 71.56, 103.2 68.26 M101.87 83.6 C102.28 78.9, 102.69 74.2, 103.2 68.26 M103.2 68.26 C103.31 64.3, 103.41 60.35, 103.74 48.49 M103.2 68.26 C103.32 64, 103.43 59.75, 103.74 48.49 M103.74 48.49 C103.36 45.07, 102.99 41.66, 101.89 31.62 M103.74 48.49 C103.13 42.92, 102.52 37.35, 101.89 31.62 M101.89 31.62 C100.93 27.26, 99.97 22.9, 98.38 15.63 M101.89 31.62 C100.73 26.33, 99.57 21.04, 98.38 15.63 M98.38 15.63 C97.46 9.78, 96.54 3.93, 95.87 -0.27 M98.38 15.63 C97.51 10.12, 96.64 4.61, 95.87 -0.27 M95.87 -0.27 C92.66 -0.32, 89.45 -0.37, 82.34 -0.49 M95.87 -0.27 C91.86 -0.34, 87.85 -0.4, 82.34 -0.49 M82.34 -0.49 C63.19 -0.37, 44.05 -0.26, 0 0 M82.34 -0.49 C55.12 -0.33, 27.9 -0.17, 0 0 M0 0 C0 0, 0 0, 0 0 M0 0 C0 0, 0 0, 0 0" stroke="transparent" stroke-width="1" fill="none"></path></g></g><mask></mask><g stroke-linecap="round"><g stroke-opacity="0.4" fill-opacity="0.4" transform="translate(170.39061541342562 34.61696607634349) rotate(0 43.71126472879132 95.59251121722446)" fill-rule="evenodd"><path d="M2.18 -3.41 C2.18 -3.41, 2.18 -3.41, 2.18 -3.41 M2.18 -3.41 C2.18 -3.41, 2.18 -3.41, 2.18 -3.41 M2.57 2.23 C4.05 0.53, 5.53 -1.17, 7.82 -3.8 M2.57 2.23 C4.2 0.36, 5.83 -1.52, 7.82 -3.8 M2.97 7.88 C5.91 4.49, 8.86 1.1, 12.81 -3.44 M2.97 7.88 C5.86 4.55, 8.75 1.23, 12.81 -3.44 M3.36 13.52 C6.33 10.1, 9.31 6.68, 17.79 -3.08 M3.36 13.52 C8.59 7.5, 13.82 1.48, 17.79 -3.08 M4.41 18.41 C9.47 12.59, 14.53 6.77, 22.78 -2.72 M4.41 18.41 C9.93 12.06, 15.45 5.71, 22.78 -2.72 M4.81 24.05 C13.42 14.14, 22.04 4.23, 28.42 -3.12 M4.81 24.05 C14.25 13.19, 23.69 2.32, 28.42 -3.12 M5.86 28.94 C15.66 17.66, 25.46 6.38, 33.41 -2.76 M5.86 28.94 C16.05 17.21, 26.25 5.48, 33.41 -2.76 M7.56 33.07 C16.66 22.61, 25.75 12.15, 38.4 -2.4 M7.56 33.07 C18.3 20.72, 29.04 8.36, 38.4 -2.4 M7.96 38.72 C16.41 28.99, 24.86 19.27, 44.04 -2.79 M7.96 38.72 C15.47 30.08, 22.98 21.44, 44.04 -2.79 M6.38 46.62 C22.25 28.37, 38.12 10.11, 49.03 -2.43 M6.38 46.62 C22.12 28.52, 37.87 10.41, 49.03 -2.43 M6.78 52.27 C20.65 36.31, 34.52 20.35, 54.01 -2.07 M6.78 52.27 C21.25 35.62, 35.71 18.98, 54.01 -2.07 M7.83 57.16 C23.97 38.59, 40.11 20.02, 59.66 -2.47 M7.83 57.16 C26.45 35.73, 45.08 14.3, 59.66 -2.47 M8.22 62.8 C25.49 42.93, 42.76 23.07, 64.64 -2.11 M8.22 62.8 C21.89 47.08, 35.55 31.36, 64.64 -2.11 M6.65 70.71 C23.46 51.37, 40.27 32.03, 69.63 -1.75 M6.65 70.71 C22.53 52.44, 38.41 34.17, 69.63 -1.75 M5.08 78.61 C28.42 51.76, 51.76 24.91, 75.27 -2.14 M5.08 78.61 C31.71 47.98, 58.34 17.34, 75.27 -2.14 M5.47 84.26 C30.27 55.73, 55.07 27.2, 80.26 -1.78 M5.47 84.26 C29.14 57.03, 52.81 29.8, 80.26 -1.78 M5.21 90.65 C23.07 70.11, 40.93 49.56, 85.25 -1.42 M5.21 90.65 C34.62 56.83, 64.02 23, 85.25 -1.42 M5.6 96.3 C25.72 73.16, 45.83 50.02, 90.24 -1.06 M5.6 96.3 C27.38 71.25, 49.15 46.2, 90.24 -1.06 M6 101.94 C34.51 69.15, 63.01 36.35, 95.88 -1.45 M6 101.94 C27.71 76.96, 49.43 51.98, 95.88 -1.45 M5.74 108.34 C30.12 80.29, 54.5 52.24, 100.87 -1.09 M5.74 108.34 C35.75 73.81, 65.77 39.28, 100.87 -1.09 M6.13 113.98 C40.31 74.66, 74.49 35.34, 105.85 -0.73 M6.13 113.98 C38.38 76.88, 70.63 39.79, 105.85 -0.73 M5.21 121.13 C36.28 85.39, 67.35 49.65, 109.53 1.13 M5.21 121.13 C43.6 76.98, 81.99 32.82, 109.53 1.13 M0.36 132.81 C35.75 92.11, 71.13 51.4, 111.89 4.51 M0.36 132.81 C36.05 91.75, 71.75 50.69, 111.89 4.51 M-3.84 143.74 C21.15 114.99, 46.14 86.25, 114.25 7.89 M-3.84 143.74 C23.02 112.84, 49.88 81.94, 114.25 7.89 M-44.12 196.18 C-4.57 150.68, 34.98 105.18, 115.96 12.03 M-44.12 196.18 C-8.13 154.78, 27.85 113.38, 115.96 12.03 M-38.48 195.78 C6.37 144.19, 51.21 92.61, 118.32 15.41 M-38.48 195.78 C15.25 133.98, 68.97 72.18, 118.32 15.41 M-33.49 196.14 C1.45 155.95, 36.39 115.76, 120.03 19.54 M-33.49 196.14 C-0.2 157.84, 33.09 119.55, 120.03 19.54 M-28.5 196.5 C23.85 136.28, 76.2 76.05, 121.74 23.67 M-28.5 196.5 C16.29 144.97, 61.08 93.45, 121.74 23.67 M-22.86 196.11 C27.37 138.33, 77.6 80.55, 123.44 27.81 M-22.86 196.11 C30 135.3, 82.86 74.49, 123.44 27.81 M-17.87 196.47 C20.11 152.78, 58.08 109.09, 125.15 31.94 M-17.87 196.47 C27.12 144.71, 72.12 92.95, 125.15 31.94 M-12.23 196.07 C38.93 137.22, 90.09 78.37, 126.86 36.07 M-12.23 196.07 C30.78 146.6, 73.78 97.13, 126.86 36.07 M-7.24 196.43 C25.89 158.31, 59.03 120.19, 129.22 39.45 M-7.24 196.43 C40.31 141.73, 87.87 87.02, 129.22 39.45 M-1.6 196.04 C33.35 155.83, 68.31 115.62, 130.93 43.59 M-1.6 196.04 C51.08 135.43, 103.77 74.83, 130.93 43.59 M3.39 196.4 C45.18 148.33, 86.96 100.26, 131.98 48.47 M3.39 196.4 C53.83 138.37, 104.28 80.34, 131.98 48.47 M8.38 196.76 C43.43 156.43, 78.49 116.1, 132.37 54.12 M8.38 196.76 C51.68 146.95, 94.98 97.13, 132.37 54.12 M14.02 196.36 C49.32 155.75, 84.63 115.13, 133.42 59.01 M14.02 196.36 C58.72 144.94, 103.43 93.51, 133.42 59.01 M19.01 196.72 C49.67 161.45, 80.33 126.18, 134.47 63.89 M19.01 196.72 C62.09 147.16, 105.17 97.6, 134.47 63.89 M24.65 196.33 C66.28 148.43, 107.92 100.54, 134.87 69.54 M24.65 196.33 C53.21 163.47, 81.77 130.61, 134.87 69.54 M29.64 196.69 C65.76 155.13, 101.89 113.57, 135.26 75.18 M29.64 196.69 C57.53 164.6, 85.42 132.51, 135.26 75.18 M35.28 196.29 C68.71 157.84, 102.14 119.38, 135.66 80.82 M35.28 196.29 C70.09 156.25, 104.9 116.21, 135.66 80.82 M40.27 196.65 C62.54 171.03, 84.82 145.4, 136.71 85.71 M40.27 196.65 C69.47 163.06, 98.66 129.47, 136.71 85.71 M45.25 197.01 C78.54 158.72, 111.82 120.43, 137.1 91.36 M45.25 197.01 C79.56 157.55, 113.87 118.08, 137.1 91.36 M50.9 196.62 C80.15 162.96, 109.41 129.31, 136.84 97.75 M50.9 196.62 C81.48 161.43, 112.07 126.25, 136.84 97.75 M55.88 196.98 C72.49 177.87, 89.1 158.77, 136.58 104.15 M55.88 196.98 C72.95 177.35, 90.02 157.71, 136.58 104.15 M61.53 196.59 C81.34 173.79, 101.16 150.99, 135.66 111.3 M61.53 196.59 C89.41 164.51, 117.29 132.44, 135.66 111.3 M66.51 196.95 C83.05 177.92, 99.58 158.9, 134.74 118.46 M66.51 196.95 C91.68 168, 116.84 139.05, 134.74 118.46 M72.16 196.55 C90.71 175.21, 109.26 153.87, 134.48 124.85 M72.16 196.55 C90.97 174.91, 109.78 153.27, 134.48 124.85 M77.14 196.91 C96.85 174.25, 116.55 151.58, 127.66 138.8 M77.14 196.91 C91.77 180.09, 106.39 163.26, 127.66 138.8 M84.1 195.01 C96.37 180.89, 108.64 166.77, 124.12 148.97 M84.1 195.01 C98.41 178.54, 112.73 162.07, 124.12 148.97 M91.05 193.1 C97.41 185.79, 103.76 178.48, 121.89 157.63 M91.05 193.1 C98.87 184.11, 106.68 175.12, 121.89 157.63" stroke="#a3be8c" stroke-width="0.5" fill="none"></path><path d="M0 0 C0.51 1.77, 1.02 3.54, 2.29 7.95 M0 0 C0.51 1.78, 1.03 3.56, 2.29 7.95 M2.29 7.95 C3.14 13.81, 4 19.67, 5.6 30.73 M2.29 7.95 C3.57 16.74, 4.85 25.52, 5.6 30.73 M5.6 30.73 C5.51 35.21, 5.41 39.69, 5.27 46.2 M5.6 30.73 C5.51 35.1, 5.42 39.48, 5.27 46.2 M5.27 46.2 C6.03 51.97, 6.79 57.73, 7.3 61.67 M5.27 46.2 C5.89 50.88, 6.5 55.56, 7.3 61.67 M7.3 61.67 C6.64 65.22, 5.98 68.77, 4.37 77.41 M7.3 61.67 C6.24 67.34, 5.19 73.02, 4.37 77.41 M4.37 77.41 C4.39 79.17, 4.42 80.93, 4.46 83.88 M4.37 77.41 C4.39 78.76, 4.41 80.11, 4.46 83.88 M4.46 83.88 C4.6 90.35, 4.74 96.81, 4.82 100.81 M4.46 83.88 C4.55 88.02, 4.64 92.15, 4.82 100.81 M4.82 100.81 C4.53 104.13, 4.24 107.46, 3.89 111.45 M4.82 100.81 C4.62 103.15, 4.41 105.5, 3.89 111.45 M3.89 111.45 C2.95 116.79, 2.01 122.13, 0.11 132.94 M3.89 111.45 C2.92 116.94, 1.96 122.44, 0.11 132.94 M0.11 132.94 C-1.03 135.88, -2.17 138.83, -4.61 145.11 M0.11 132.94 C-1.5 137.09, -3.11 141.24, -4.61 145.11 M-4.61 145.11 C-8.77 150.75, -12.93 156.4, -16.36 161.05 M-4.61 145.11 C-8.75 150.73, -12.9 156.35, -16.36 161.05 M-16.36 161.05 C-19.05 164.5, -21.74 167.94, -25.46 172.7 M-16.36 161.05 C-19.62 165.23, -22.89 169.4, -25.46 172.7 M-25.46 172.7 C-30.54 177.91, -35.62 183.12, -39.3 186.9 M-25.46 172.7 C-28.63 175.96, -31.81 179.21, -39.3 186.9 M-39.3 186.9 C-41.47 188.99, -43.65 191.08, -46.57 193.89 M-39.3 186.9 C-41.82 189.33, -44.35 191.76, -46.57 193.89 M-46.57 193.89 C4.97 194.25, 56.5 194.61, 84.12 194.8 M-46.57 193.89 C-18.38 194.09, 9.82 194.29, 84.12 194.8 M84.12 194.8 C87.59 193.77, 91.06 192.74, 93.58 192 M84.12 194.8 C87.6 193.77, 91.08 192.74, 93.58 192 M93.58 192 C98.41 186.65, 103.24 181.31, 110.69 173.07 M93.58 192 C100.04 184.84, 106.51 177.69, 110.69 173.07 M110.69 173.07 C112.59 169.7, 114.5 166.33, 120.16 156.32 M110.69 173.07 C114.17 166.92, 117.64 160.77, 120.16 156.32 M120.16 156.32 C122.34 150.45, 124.53 144.58, 127.07 137.75 M120.16 156.32 C121.66 152.29, 123.16 148.25, 127.07 137.75 M127.07 137.75 C128.94 131.57, 130.81 125.38, 131.8 122.1 M127.07 137.75 C128.38 133.42, 129.69 129.09, 131.8 122.1 M131.8 122.1 C132.5 115.68, 133.2 109.27, 133.99 102.08 M131.8 122.1 C132.62 114.65, 133.43 107.21, 133.99 102.08 M133.99 102.08 C133.99 95.71, 133.99 89.34, 133.99 82.78 M133.99 102.08 C133.99 95.99, 133.99 89.91, 133.99 82.78 M133.99 82.78 C133.47 75.35, 132.95 67.91, 132.53 62.03 M133.99 82.78 C133.53 76.23, 133.07 69.69, 132.53 62.03 M132.53 62.03 C131.83 56.6, 131.13 51.17, 129.98 42.37 M132.53 62.03 C131.8 56.39, 131.07 50.76, 129.98 42.37 M129.98 42.37 C127.96 37.98, 125.93 33.58, 121.25 23.44 M129.98 42.37 C127.73 37.5, 125.48 32.62, 121.25 23.44 M121.25 23.44 C119.01 18.64, 116.77 13.84, 113.6 7.06 M121.25 23.44 C119.1 18.83, 116.95 14.23, 113.6 7.06 M113.6 7.06 C111.09 3.99, 108.57 0.91, 107.05 -0.95 M113.6 7.06 C112 5.11, 110.41 3.15, 107.05 -0.95 M107.05 -0.95 C72.57 -1.83, 38.1 -2.71, 2.36 -3.62 M107.05 -0.95 C67.79 -1.95, 28.54 -2.95, 2.36 -3.62 M2.36 -3.62 C1.43 -2.19, 0.5 -0.77, 0 0 M2.36 -3.62 C1.76 -2.69, 1.15 -1.77, 0 0" stroke="transparent" stroke-width="1" fill="none"></path></g></g><mask></mask><g stroke-linecap="round"><g stroke-opacity="0.4" fill-opacity="0.4" transform="translate(278.36165693471594 31.32518657418109) rotate(0 45.98498863266377 99.77556692178018)" fill-rule="evenodd"><path d="M0 0 C0 0, 0 0, 0 0 M0 0 C0 0, 0 0, 0 0 M2.36 3.38 C2.7 2.99, 3.04 2.6, 3.67 1.87 M2.36 3.38 C2.77 2.91, 3.18 2.44, 3.67 1.87 M4.07 7.51 C5.33 6.07, 6.59 4.62, 8.66 2.23 M4.07 7.51 C5.9 5.41, 7.73 3.3, 8.66 2.23 M6.43 10.89 C8.62 8.37, 10.81 5.85, 14.3 1.84 M6.43 10.89 C9.1 7.83, 11.76 4.76, 14.3 1.84 M8.8 14.27 C11.43 11.24, 14.06 8.22, 19.29 2.2 M8.8 14.27 C12.64 9.85, 16.48 5.43, 19.29 2.2 M10.5 18.4 C14.04 14.33, 17.58 10.26, 24.28 2.56 M10.5 18.4 C14.8 13.46, 19.1 8.51, 24.28 2.56 M12.86 21.78 C17.28 16.7, 21.7 11.62, 29.92 2.16 M12.86 21.78 C17.05 16.97, 21.23 12.16, 29.92 2.16 M14.57 25.92 C19.12 20.68, 23.68 15.44, 34.91 2.52 M14.57 25.92 C18.85 20.99, 23.14 16.06, 34.91 2.52 M16.28 30.05 C24.37 20.74, 32.47 11.43, 40.55 2.13 M16.28 30.05 C22.87 22.47, 29.46 14.88, 40.55 2.13 M17.98 34.18 C26.08 24.87, 34.18 15.56, 45.54 2.49 M17.98 34.18 C24.88 26.25, 31.78 18.31, 45.54 2.49 M20.35 37.56 C30.97 25.34, 41.6 13.12, 51.18 2.09 M20.35 37.56 C31.71 24.5, 43.06 11.43, 51.18 2.09 M22.05 41.7 C34.61 27.25, 47.17 12.81, 56.17 2.45 M22.05 41.7 C35.26 26.51, 48.46 11.32, 56.17 2.45 M23.76 45.83 C35.14 32.74, 46.51 19.66, 61.81 2.06 M23.76 45.83 C33.21 34.96, 42.66 24.09, 61.81 2.06 M25.47 49.96 C35.12 38.86, 44.77 27.76, 66.8 2.42 M25.47 49.96 C34.37 39.73, 43.27 29.49, 66.8 2.42 M25.86 55.61 C36.99 42.8, 48.13 29.99, 72.44 2.02 M25.86 55.61 C40.44 38.83, 55.02 22.06, 72.44 2.02 M26.26 61.25 C39.72 45.76, 53.18 30.28, 77.43 2.38 M26.26 61.25 C40.02 45.42, 53.77 29.59, 77.43 2.38 M27.31 66.14 C46.44 44.13, 65.58 22.11, 83.07 1.99 M27.31 66.14 C47.01 43.47, 66.71 20.81, 83.07 1.99 M27.7 71.78 C46.76 49.86, 65.81 27.95, 88.06 2.35 M27.7 71.78 C47.05 49.53, 66.39 27.27, 88.06 2.35 M28.1 77.42 C42.9 60.39, 57.71 43.36, 93.7 1.95 M28.1 77.42 C44.43 58.64, 60.76 39.85, 93.7 1.95 M28.49 83.07 C45.06 64, 61.63 44.94, 98.69 2.31 M28.49 83.07 C48.29 60.29, 68.09 37.51, 98.69 2.31 M29.54 87.96 C47.26 67.57, 64.98 47.19, 104.33 1.92 M29.54 87.96 C49.65 64.83, 69.75 41.7, 104.33 1.92 M29.94 93.6 C58.35 60.91, 86.76 28.23, 109.98 1.52 M29.94 93.6 C54.3 65.57, 78.67 37.54, 109.98 1.52 M29.68 100 C58.73 66.57, 87.79 33.14, 109.71 7.92 M29.68 100 C59.36 65.85, 89.04 31.7, 109.71 7.92 M29.41 106.39 C60.82 70.27, 92.22 34.15, 110.11 13.57 M29.41 106.39 C51.81 80.63, 74.21 54.86, 110.11 13.57 M30.46 111.28 C56.36 81.5, 82.25 51.71, 109.85 19.96 M30.46 111.28 C54.44 83.7, 78.42 56.11, 109.85 19.96 M29.55 118.44 C57.07 86.77, 84.6 55.1, 110.24 25.61 M29.55 118.44 C56.22 87.75, 82.89 57.07, 110.24 25.61 M27.97 126.34 C51.3 99.51, 74.63 72.67, 109.98 32 M27.97 126.34 C52.45 98.18, 76.93 70.02, 109.98 32 M23.12 138.02 C57.71 98.23, 92.31 58.43, 109.72 38.4 M23.12 138.02 C51.82 105.01, 80.52 71.99, 109.72 38.4 M18.27 149.7 C48.74 114.64, 79.22 79.58, 110.11 44.04 M18.27 149.7 C53.65 109, 89.04 68.29, 110.11 44.04 M14.72 159.88 C37.43 133.75, 60.14 107.63, 109.85 50.44 M14.72 159.88 C51.57 117.49, 88.41 75.11, 109.85 50.44 M-15.72 200.99 C34.19 143.58, 84.1 86.16, 109.59 56.84 M-15.72 200.99 C18.94 161.12, 53.6 121.26, 109.59 56.84 M-10.73 201.35 C27.8 157.02, 66.34 112.69, 109.99 62.48 M-10.73 201.35 C30.86 153.51, 72.44 105.67, 109.99 62.48 M-5.09 200.96 C35.07 154.76, 75.22 108.57, 109.72 68.88 M-5.09 200.96 C26.56 164.55, 58.21 128.14, 109.72 68.88 M-0.1 201.32 C42.6 152.2, 85.29 103.08, 110.12 74.52 M-0.1 201.32 C31.67 164.77, 63.44 128.22, 110.12 74.52 M5.54 200.92 C35.59 166.36, 65.63 131.8, 109.86 80.92 M5.54 200.92 C44.64 155.94, 83.74 110.97, 109.86 80.92 M10.53 201.28 C47.73 158.49, 84.93 115.7, 109.6 87.32 M10.53 201.28 C34.59 173.61, 58.65 145.93, 109.6 87.32 M15.52 201.64 C39.22 174.38, 62.92 147.12, 109.99 92.96 M15.52 201.64 C49.1 163.01, 82.67 124.39, 109.99 92.96 M21.16 201.25 C47.89 170.5, 74.62 139.75, 109.73 99.36 M21.16 201.25 C45.23 173.56, 69.3 145.87, 109.73 99.36 M26.15 201.61 C52.14 171.7, 78.14 141.8, 109.47 105.76 M26.15 201.61 C50.14 174.01, 74.13 146.41, 109.47 105.76 M31.79 201.21 C60.71 167.94, 89.64 134.67, 109.86 111.4 M31.79 201.21 C61.26 167.31, 90.73 133.42, 109.86 111.4 M36.78 201.57 C57.24 178.03, 77.71 154.49, 109.6 117.8 M36.78 201.57 C53.66 182.15, 70.54 162.73, 109.6 117.8 M42.42 201.18 C60.77 180.06, 79.13 158.95, 110 123.44 M42.42 201.18 C56.03 185.52, 69.64 169.87, 110 123.44 M47.41 201.54 C60.1 186.94, 72.79 172.34, 109.73 129.84 M47.41 201.54 C68.33 177.47, 89.25 153.4, 109.73 129.84 M53.05 201.14 C68.92 182.89, 84.79 164.63, 109.47 136.24 M53.05 201.14 C71.34 180.1, 89.64 159.05, 109.47 136.24 M58.04 201.5 C71.57 185.93, 85.11 170.36, 109.87 141.88 M58.04 201.5 C75.51 181.4, 92.98 161.3, 109.87 141.88 M63.68 201.11 C80.28 182.01, 96.88 162.92, 109.61 148.28 M63.68 201.11 C80.47 181.79, 97.26 162.48, 109.61 148.28 M68.67 201.47 C79.7 188.78, 90.73 176.08, 109.34 154.68 M68.67 201.47 C79.36 189.17, 90.05 176.88, 109.34 154.68 M74.31 201.07 C83.53 190.47, 92.74 179.88, 109.74 160.32 M74.31 201.07 C84.38 189.49, 94.45 177.91, 109.74 160.32 M79.3 201.43 C90.98 187.99, 102.67 174.55, 109.48 166.72 M79.3 201.43 C89.21 190.03, 99.12 178.63, 109.48 166.72 M84.94 201.04 C90.06 195.15, 95.19 189.26, 109.22 173.12 M84.94 201.04 C91.69 193.28, 98.43 185.52, 109.22 173.12 M89.93 201.4 C97.77 192.38, 105.61 183.36, 109.61 178.76 M89.93 201.4 C94.63 195.99, 99.34 190.58, 109.61 178.76 M95.57 201.01 C98.8 197.3, 102.02 193.59, 109.35 185.16 M95.57 201.01 C99.48 196.51, 103.38 192.02, 109.35 185.16 M100.56 201.37 C102.67 198.94, 104.78 196.51, 109.74 190.8 M100.56 201.37 C103.21 198.32, 105.85 195.28, 109.74 190.8 M105.55 201.73 C106.47 200.66, 107.39 199.6, 109.48 197.2 M105.55 201.73 C106.63 200.47, 107.72 199.22, 109.48 197.2" stroke="#5e81ac" stroke-width="0.5" fill="none"></path><path d="M0 0 C3.79 6.34, 7.57 12.67, 12.83 21.47 M0 0 C4.65 7.78, 9.3 15.55, 12.83 21.47 M12.83 21.47 C14.69 25.87, 16.56 30.27, 17.94 33.53 M12.83 21.47 C14.62 25.69, 16.4 29.91, 17.94 33.53 M17.94 33.53 C20.51 39.3, 23.09 45.06, 25.2 49.79 M17.94 33.53 C20.73 39.78, 23.51 46.02, 25.2 49.79 M25.2 49.79 C25.95 57.2, 26.71 64.61, 27.99 77.19 M25.2 49.79 C25.85 56.16, 26.5 62.52, 27.99 77.19 M27.99 77.19 C28.42 81.44, 28.85 85.69, 29.63 93.39 M27.99 77.19 C28.4 81.22, 28.81 85.25, 29.63 93.39 M29.63 93.39 C29.36 98.79, 29.1 104.18, 28.84 109.4 M29.63 93.39 C29.38 98.42, 29.13 103.44, 28.84 109.4 M28.84 109.4 C27.98 115.31, 27.13 121.22, 26.5 125.58 M28.84 109.4 C28.19 113.89, 27.54 118.39, 26.5 125.58 M26.5 125.58 C22.03 136.67, 17.56 147.76, 15.1 153.86 M26.5 125.58 C23.1 134.01, 19.7 142.45, 15.1 153.86 M15.1 153.86 C14.87 155.25, 14.64 156.65, 14.16 159.53 M15.1 153.86 C14.84 155.46, 14.57 157.06, 14.16 159.53 M14.16 159.53 C6.12 169.48, -1.93 179.44, -18.08 199.44 M14.16 159.53 C6.79 168.65, -0.58 177.78, -18.08 199.44 M-18.08 199.44 C10.61 199.47, 39.31 199.49, 109.45 199.55 M-18.08 199.44 C15.55 199.47, 49.18 199.5, 109.45 199.55 M109.45 199.55 C109.58 158.27, 109.7 116.99, 110.05 1.43 M109.45 199.55 C109.68 122.86, 109.92 46.18, 110.05 1.43 M110.05 1.43 C82.55 1.43, 55.04 1.44, 2.55 1.46 M110.05 1.43 C76.76 1.44, 43.47 1.45, 2.55 1.46 M2.55 1.46 C1.65 0.94, 0.74 0.42, 0 0 M2.55 1.46 C1.54 0.88, 0.54 0.31, 0 0" stroke="transparent" stroke-width="1" fill="none"></path></g></g><mask></mask><g transform="translate(190 232.33372861018938) rotate(0 36.299964904785156 12.5)"><text x="0" y="0" font-family="Virgil, Segoe UI Emoji" font-size="20px" fill="#eceff4" text-anchor="start" style="white-space: pre;" direction="ltr" dominant-baseline="text-before-edge">Urgency</text></g><g transform="translate(350 232.33372861018938) rotate(0 22.46405029296875 10)"><text x="0" y="0" font-family="Virgil, Segoe UI Emoji" font-size="16px" fill="#eceff4" text-anchor="start" style="white-space: pre;" direction="ltr" dominant-baseline="text-before-edge">Later</text></g><g transform="translate(70 232.33372861018938) rotate(0 25.280052185058594 10)"><text x="0" y="0" font-family="Virgil, Segoe UI Emoji" font-size="16px" fill="#eceff4" text-anchor="start" style="white-space: pre;" direction="ltr" dominant-baseline="text-before-edge">Sooner</text></g><g stroke-linecap="round" transform="translate(15 27.333728610189837) rotate(270 30 15)"><path d="M7.5 0 M7.5 0 C17.06 0.56, 26.12 -1.65, 52.5 0 M7.5 0 C20.1 -0.39, 33.41 -0.7, 52.5 0 M52.5 0 C59.08 -1.02, 59.53 2.99, 60 7.5 M52.5 0 C57.93 -0.18, 61.02 4.65, 60 7.5 M60 7.5 C60.24 12.47, 61.21 16.01, 60 22.5 M60 7.5 C60.01 12.27, 59.54 17.06, 60 22.5 M60 22.5 C59.17 28.53, 56.29 30.57, 52.5 30 M60 22.5 C59.42 29.34, 59.76 30.78, 52.5 30 M52.5 30 C39.47 30.05, 26.23 28.57, 7.5 30 M52.5 30 C40.21 29.63, 27.53 30.79, 7.5 30 M7.5 30 C1.75 28.93, 1.14 27.56, 0 22.5 M7.5 30 C0.8 29.2, 1.2 28.57, 0 22.5 M0 22.5 C-0.38 16.83, 0.34 11.79, 0 7.5 M0 22.5 C-0.36 17.69, 0.66 12.22, 0 7.5 M0 7.5 C-0.37 3.03, 1.71 0.38, 7.5 0 M0 7.5 C-1.62 4, 1.87 1.35, 7.5 0" stroke="transparent" stroke-width="2" fill="none"></path></g><g transform="translate(41.759918212890625 32.33372861018984) rotate(270 14.120040893554688 10)"><text x="28.240081787109375" y="0" font-family="Virgil, Segoe UI Emoji" font-size="16px" fill="#eceff4" text-anchor="end" style="white-space: pre;" direction="ltr" dominant-baseline="text-before-edge">High</text></g><g stroke-linecap="round"><g transform="translate(70 232.33372861018938) rotate(0 0.09867887363770933 -100.1143261630088)"><path d="M0.33 -0.11 C0.17 -33.48, -0.76 -166.81, -1 -200.12 M-0.95 -1.21 C-0.75 -34.4, 0.83 -165.73, 1.19 -198.64" stroke="#eceff4" stroke-width="2" fill="none"></path></g></g><mask></mask><g stroke-linecap="round"><g transform="translate(70 232.33372861018938) rotate(0 160.0341184839699 0.15918260699140774)"><path d="M-1 -0.12 C52.1 -0.1, 265.51 0.06, 318.92 0.01 M0.68 -1.23 C54.11 -0.99, 268.11 1.24, 321.06 1.55" stroke="#eceff4" stroke-width="2" fill="none"></path></g></g><mask></mask><g stroke-linecap="round"><g transform="translate(70 32.33372861018984) rotate(0 159.1872091550381 -0.1000770171917793)"><path d="M-1.08 0.01 C52.33 -0.05, 265.98 -0.32, 319.45 -0.46 M0.55 -1.04 C53.84 -0.92, 265.17 0.66, 318.22 0.84" stroke="#eceff4" stroke-width="2" fill="none"></path></g></g><mask></mask><g stroke-linecap="round"><g transform="translate(70 132.33372861018984) rotate(0 159.61257378049186 -0.7469567480296746)"><path d="M-0.55 -0.46 C52.93 -0.6, 266.19 -0.82, 319.77 -0.84 M1.37 -1.75 C54.76 -1.76, 265.48 -0.1, 318.7 0.25" stroke="#eceff4" stroke-width="1" fill="none"></path></g></g><mask></mask><g stroke-linecap="round"><g transform="translate(390 232.33372861018938) rotate(0 -0.43212772989045334 -99.64075539887881)"><path d="M-0.23 -0.84 C0.02 -34.2, 0.95 -167.47, 0.95 -200.61 M-1.81 1.33 C-1.59 -31.84, 0.39 -166.13, 0.49 -199.39" stroke="#eceff4" stroke-width="2" fill="none"></path></g></g><mask></mask><g stroke-linecap="round"><g transform="translate(230 231.35053816885033) rotate(0 -0.21583029954717858 -99.02805374452743)"><path d="M0.95 -0.61 C0.94 -33.43, -0.16 -164.85, -0.28 -197.77 M-0.02 1.68 C-0.19 -31.44, -1.31 -166.64, -1.38 -199.74" stroke="#eceff4" stroke-width="1" fill="none"></path></g></g><mask></mask><g stroke-linecap="round" transform="translate(15 207.33372861018972) rotate(270 30 15)"><path d="M7.5 0 M7.5 0 C25.03 0.48, 41.43 0.99, 52.5 0 M7.5 0 C25.63 -0.09, 43.59 0.56, 52.5 0 M52.5 0 C58.27 0.3, 58.77 1.84, 60 7.5 M52.5 0 C57.81 0.15, 58.88 2.83, 60 7.5 M60 7.5 C60.51 11, 61.27 16.73, 60 22.5 M60 7.5 C60.58 12.27, 59.84 16.97, 60 22.5 M60 22.5 C58.2 27.21, 58.2 30.51, 52.5 30 M60 22.5 C61.31 26.38, 59.19 31.55, 52.5 30 M52.5 30 C40.75 28.78, 28.19 31.3, 7.5 30 M52.5 30 C36.28 29.84, 20.62 30.32, 7.5 30 M7.5 30 C0.54 30.69, -0.53 25.98, 0 22.5 M7.5 30 C1.26 30.64, 1.89 26.75, 0 22.5 M0 22.5 C0.25 17.22, 0.94 13.65, 0 7.5 M0 22.5 C0.31 17.71, -0.73 11.9, 0 7.5 M0 7.5 C-0.69 2.23, 1.23 -1.45, 7.5 0 M0 7.5 C1.85 0.28, 4.25 1.21, 7.5 0" stroke="transparent" stroke-width="2" fill="none"></path></g><g transform="translate(41.807952880859375 212.3337286101896) rotate(270 14.096023559570312 10)"><text x="28.192047119140625" y="0" font-family="Virgil, Segoe UI Emoji" font-size="16px" fill="#eceff4" text-anchor="end" style="white-space: pre;" direction="ltr" dominant-baseline="text-before-edge">Low</text></g><g stroke-linecap="round" transform="translate(0 82.33372861018984) rotate(270 50 40)"><path d="M20 0 M20 0 C36.44 0.77, 55.06 -0.82, 80 0 M20 0 C41.38 0.69, 61.8 0.08, 80 0 M80 0 C92.1 -0.66, 100.27 6.79, 100 20 M80 0 C92.21 0.33, 99.05 7.85, 100 20 M100 20 C101.71 31.55, 100.79 38.69, 100 60 M100 20 C100.17 30.69, 99.43 42.71, 100 60 M100 60 C100.7 73.84, 94.47 79.03, 80 80 M100 60 C101.69 74.88, 92.47 78.76, 80 80 M80 80 C57.89 80.6, 38.1 79.72, 20 80 M80 80 C60.28 80.1, 40.98 80.2, 20 80 M20 80 C6.14 78.48, -1.07 73.89, 0 60 M20 80 C8.56 79.25, -0.43 73.94, 0 60 M0 60 C1.22 49.04, 1.09 39.65, 0 20 M0 60 C-1.1 46.52, -0.53 32.48, 0 20 M0 20 C-1.27 5.21, 8.28 -1.93, 20 0 M0 20 C1.75 7.88, 6.66 1.49, 20 0" stroke="transparent" stroke-width="2" fill="none"></path></g><g transform="translate(15.950035095214844 109.83372861018984) rotate(270 34.049964904785156 12.5)"><text x="34.049964904785156" y="0" font-family="Virgil, Segoe UI Emoji" font-size="20px" fill="#eceff4" text-anchor="middle" style="white-space: pre;" direction="ltr" dominant-baseline="text-before-edge">Impact</text></g><g stroke-opacity="0.7" fill-opacity="0.7" transform="translate(72.11539854251532 10.31146732378511) rotate(0 32.52006530761719 10)"><text x="32.52006530761719" y="0" font-family="Virgil, Segoe UI Emoji" font-size="16px" fill="#bf616a" text-anchor="middle" style="white-space: pre;" direction="ltr" dominant-baseline="text-before-edge">Must do</text></g><g stroke-opacity="0.6" fill-opacity="0.6" transform="translate(170.4630827209039 10) rotate(0 50.096099853515625 10)"><text x="50.096099853515625" y="0" font-family="Virgil, Segoe UI Emoji" font-size="16px" fill="#a3be8c" text-anchor="middle" style="white-space: pre;" direction="ltr" dominant-baseline="text-before-edge">Nice to have</text></g><g stroke-opacity="0.5" fill-opacity="0.5" transform="translate(318.58107379634384 10.369159545176672) rotate(0 33.76806640625 10)"><text x="33.76806640625" y="0" font-family="Virgil, Segoe UI Emoji" font-size="16px" fill="#5e81ac" text-anchor="middle" style="white-space: pre;" direction="ltr" dominant-baseline="text-before-edge">Won't do</text></g></svg>